<svg id="eKwXi4fbWI71" xmlns="http://www.w3.org/2000/svg" xmlns:xlink="http://www.w3.org/1999/xlink" viewBox="0 0 590 360" shape-rendering="geometricPrecision" text-rendering="geometricPrecision">
<style><![CDATA[
#eKwXi4fbWI73_to {animation: eKwXi4fbWI73_to__to 3000ms linear infinite normal forwards}@keyframes eKwXi4fbWI73_to__to { 0% {transform: translate(386.852639px,-200.193104px)} 16.666667% {transform: translate(386.848452px,-187.188246px)} 33.333333% {transform: translate(386.848452px,-200.188246px)} 50% {transform: translate(386.848452px,-187.188246px)} 66.666667% {transform: translate(386.848452px,-200.188246px)} 83.333333% {transform: translate(386.848452px,-187.188246px)} 100% {transform: translate(386.848452px,-200.188246px)}}
]]></style>
<g><g id="eKwXi4fbWI73_to" transform="translate(386.852639,-200.193104)"><ellipse rx="28.47" ry="28.14" transform="rotate(103.599994) translate(287.6,33.87)" fill="#fff"/></g><path d="M232.92,128.89c3.78,27.29-1.81,55.44-17.71,78.09-.610963.870887-.634672,2.024751-.06,2.92c1.24,1.92,2.96,5.05,5.56,4.94q5.25-.22,10.79.11c.672283.037376,1.196382.596709,1.19,1.27l-.4,42.53c-.005493.719585-.590394,1.300021-1.31,1.3q-16.77-.09-36.53.01-2.25.02-3.71-1.56-16.02-17.28-31.98-35.32c-5.13-5.8-10.18-11.16-14.86-17.59-.234342-.319666-.313973-.727248-.217488-1.113186s.359185-.710636.717488-.886814q12.88-6.32,22.13-17.12q18.18-21.23,15.08-48.84-2.66-23.7-22.4-40.46-23.43-19.9-54.88-13.86c-4.1.79-7.83,2.5-11.72,4.12q-11.86,4.94-20.59,14.64c-14.25,15.81-20.07,36.4-15.05,57.16q4.99,20.63,22.86,35.71c10.45,8.81,23.7,13.12,37.26,14.18q1.47.11,3.6,2.65c11.68,13.89,24.48,27.72,35.94,41.96.089095.111267.117261.259455.0752.39565s-.148879.242697-.2852.28435q-22.51,7.27-47.37,5.37-19.4-1.47-39.74-11.22-18.27-8.75-30.59-21.28Q20.06,208.3,10.7,183.71q-10.8-28.4-4.93-58.67c1.59-8.17,4.03-17,7.42-24.61Q18.27,89.05,24.8,79.79Q50.21,43.76,93.25,33.66q32.42-7.61,64.23,3.92q25.31,9.17,43.2,27.31c16.85,17.09,28.91,40.01,32.24,64Z" transform="translate(-.326548 38.749742)" fill="#fff"/><path d="M499.47,180.61c6.45,13.53,16.44,21.75,31.96,22q11.94.19,22.17-5.36q2.21-1.2,3.93.69q12.56,13.78,24.89,28.47q1.21,1.44,1.44,3.13c.049759.339937-.087897.680254-.36.89-1.62,1.23-3.33,2.71-5.03,3.69Q549.1,251.13,516,245.43c-20.61-3.55-39.05-15.24-51.47-32.51q-6.4-8.89-9.91-17.08c-2.62-6.12-4.73-13.3-5.41-20.08q-3.96-39.88,22.94-67.74c9.48-9.81,21.15-16.67,34.39-19.49c16.54-3.53,34.64-1.83,48.77,7.1q13.92,8.79,21.13,20.4q11.07,17.84,10.48,38.92c-.02.94-.21,1.81-.85,2.54q-7.73,8.77-18.71,20.16c-1.28,1.32-2.61,2.26-4.51,2.23q-24.45-.37-51.64-.41-5.03,0-10.84-.22c-.334463-.009876-.650686.153565-.834487.431309s-.208627.629665-.065513.928691Zm1.12-37.17q-.55,1.19-.63,2.34-.08,1.01.94,1.03q19.01.25,36.98.01.5,0,.94-.22.57-.28.44-.9-2.34-11.6-14.11-15.25-3.59-1.11-6.44-.57-13.07,2.5-18.12,13.56Z" transform="translate(-.326548 38.749742)" fill="#fff"/><path d="M312.3,100.22c-.001444.196624.116164.373518.298977.44969s.395635.036957.541023-.09969q2.76-2.64,5.82-4.31q8.45-4.62,16.71-6.57c15.81-3.72,33.58-3.2,48.2,3.95q24.49,11.98,35.05,35.76c4.66,10.5,5.44,22.96,5.5,35.35q.21,49.99-.12,88-.03,3.06-.08,6.16c-.010966.725105-.604834,1.305577-1.33,1.3q-20.22-.18-40.18-.23-3.64-.01-8.13-.44c-.537084-.051394-.94781-.505354-.95-1.05q.02-45.49-.22-92.99c-.03-6.25-1.21-13.88-5.05-18.95q-5.33-7.03-12.32-10.18c-10.99-4.93-24.52-1.84-33.13,6.37q-10.01,9.53-10.07,23.76-.11,25.46-.1,48.98c0,3.52-.06,8.31-1.1,11.68-4.37,14.04-17.31,19.5-31.04,16.77-8.22-1.64-15.07-7.75-17.62-15.62q-1.45-4.49-1.42-10.2.3-64.69.1-129.86c0-.124652.049518-.244198.13766-.33234s.207688-.13766.33234-.13766l48.46-.35c.852152-.005489,1.548978.682403,1.56,1.54l.15,11.25Z" transform="translate(-.326548 38.749742)" fill="#fff"/></g></svg>
