<svg t="1723134993089" class="icon" viewBox="0 0 1024 1024" version="1.1" xmlns="http://www.w3.org/2000/svg" p-id="7682"
     width="200" height="200">
    <path d="M138.67 472.593v267.659l1.085 0.825c30.488 23.11 68.369 45.41 109.072 62.904l1.473 0.63c57.452 24.487 117.23 38.204 176.468 38.39 49.026 0.15 94.773-6.199 138.432-20.266 23.88-7.694 47.048-17.68 69.546-30.137-16.42-1.696-32.855-4.635-49.166-8.6-68.949-16.77-138.975-52.578-203.999-96.138-92.077-61.684-178.453-141.863-242.91-215.267zM597.31 182H350.745l25.776 22.626 6.472 5.7 7.9 6.985 6.658 5.915 4.791 4.275 6.144 5.509 5.17 4.665 4.297 3.899 4.876 4.451 4.077 3.748 3.337 3.085 4.594 4.276 3.238 3.034 3.21 3.026 1.917 1.814 1.633 1.553a1573.085 1573.085 0 0 1 16.368 15.806c61.384 60.116 109.769 118.745 146.283 181.615 34.096-38.136 67.506-67.95 100.368-90.075-0.08-0.224-0.158-0.452-0.233-0.681-9.674-29.434-24.133-63.778-41.697-96.235-20.272-37.46-43.21-69.797-68.284-94.664l-0.331-0.327z m149.927 506.476a42.573 42.573 0 0 1 13.201-4.727c12.04-16.686 22.616-34.537 32.12-53.8 5.835-11.824 11.243-24.101 16.582-37.512l1.185-2.999c0.593-1.509 1.184-3.032 1.776-4.572l1.184-3.099a817.09 817.09 0 0 0 2.963-7.94l0.902-2.466 1.54-4.256 1.24-3.478 0.944-2.668 1.282-3.658 1.32-3.797 1.364-3.963 1.784-5.225 10.079-29.815 1.237-3.615 1.619-4.688 1.193-3.419 1.176-3.34 1.16-3.261 0.766-2.133 1.137-3.139 0.75-2.052 0.747-2.022 1.11-2.977 0.735-1.948 0.731-1.92 0.728-1.893 1.086-2.789 1.08-2.731 0.717-1.79 0.716-1.766 0.715-1.743 0.714-1.721 1.07-2.54 0.713-1.668 0.714-1.649 0.357-0.816 0.715-1.62 0.358-0.803 0.717-1.593 0.72-1.576 0.72-1.56 0.725-1.545 0.727-1.53 0.73-1.515 0.734-1.503 0.739-1.49 0.743-1.478 0.373-0.735 0.75-1.461 0.756-1.452 0.761-1.443 0.768-1.434 0.774-1.426 0.78-1.42 0.789-1.413 0.796-1.407 0.803-1.402 0.813-1.399c0.272-0.465 0.545-0.93 0.82-1.395 6.898-11.644 14.45-22.205 22.804-31.716l0.381-0.432-0.363-0.1a167.736 167.736 0 0 0-17.333-3.808l-1.17-0.187c-19.22-3.015-38.771-2.474-59.435 2.33C766 404.728 707.642 444.655 643.04 520.58c-50.09 58.868-112.372 100.194-178.36 119.035 48.387 29.017 96.32 50.621 141.075 61.507 55.428 13.48 102.617 9.838 140.868-12.298z m40.248 75.25a229.325 229.325 0 0 1-21.023 10.522 420.333 420.333 0 0 1-20.405 18.512c-50.095 42.57-103.865 72.408-161.229 90.891-50.432 16.25-102.815 23.52-158.258 23.355-68.336-0.22-136.434-15.846-201.363-43.52-52.844-22.523-101.532-52.32-138.874-83.06a32.016 32.016 0 0 1-11.662-24.212l-0.003-364.272a663.709 663.709 0 0 1-3.155-4.546l-0.395-0.584c-12.855-19.356-7.842-45.51 11.382-58.72 19.417-13.345 45.98-8.428 59.33 10.98 49.099 71.385 141.145 170.175 245.108 248.023 60.719-0.825 122.443-27.243 174.57-74.197-34.118-63.594-81.951-122.977-145.085-184.807a1497.032 1497.032 0 0 0-16.553-15.971l-3.41-3.23-3.07-2.888-3.727-3.484-3.783-3.514-3.854-3.556-3.938-3.61-5.403-4.921-4.184-3.786-5.043-4.54-4.477-4.008-6.214-5.538-7.36-6.527-9.592-8.463-8.388-7.371-15.995-14.032-10.596-9.324-7.673-6.781-6.151-5.465-4.92-4.397-4.536-4.081-3.615-3.28-3.395-3.104-2.68-2.472-2.058-1.913-2.48-2.324-1.919-1.814-1.871-1.783-2.735-2.632-2.231-2.172-1.92-1.888a702.481 702.481 0 0 1-6.747-6.754c-19.741-20.021-5.898-53.785 21.938-54.458l0.848-0.01h341.332a32 32 0 0 1 21.426 8.232c34.675 31.26 64.87 72.453 90.762 120.299 17.457 32.258 32.066 66.007 42.695 96.357 13.332-5.523 26.586-9.793 39.771-12.858 28.861-6.71 56.686-7.48 83.844-3.22 21.406 3.358 40.992 9.48 62.014 18.392l1.835 0.783 1.842 0.796 1.861 0.816 1.894 0.839 1.94 0.868 1.996 0.903 11.45 5.265c23.934 10.99 25.088 44.57 1.966 57.177-18.753 10.224-33.09 24.764-45.475 45.42l-0.82 1.383-0.65 1.111-0.643 1.119-0.64 1.126-0.634 1.136-0.631 1.144-0.627 1.155-0.623 1.165-0.62 1.176-0.618 1.188-0.615 1.2-0.612 1.214-0.61 1.227-0.609 1.24-0.607 1.257-0.606 1.272-0.605 1.287-0.907 1.963-0.604 1.33-0.605 1.35-0.605 1.368-0.606 1.387-0.606 1.407-0.608 1.428-0.61 1.45-0.919 2.216-0.923 2.267-0.62 1.542-0.622 1.565-0.626 1.591-0.63 1.617-0.633 1.643-0.638 1.67-1.29 3.423-0.981 2.642-0.994 2.71-0.67 1.845-1.017 2.826-1.38 3.88-1.054 2.999-1.072 3.076-1.09 3.155-1.11 3.237-10.062 29.76-1.935 5.673-1.84 5.35-1.42 4.084-1.386 3.945-1.022 2.885-1.35 3.772-0.672 1.862-1.01 2.775c-8.668 23.731-17.234 44.304-27.005 64.106-11.498 23.305-24.457 44.997-39.33 65.303 0.773 15.454-6.924 30.784-21.242 39.07z"
          p-id="7683" fill="#2c2c2c"></path>
</svg>
