<svg width="22" height="22" viewBox="0 0 22 22" fill="none" xmlns="http://www.w3.org/2000/svg">
<path d="M5.06129 13.2253L4.31871 15.9975L1.60458 16.0549C0.793457 14.5504 0.333374 12.8292 0.333374 11C0.333374 9.23119 0.763541 7.56319 1.52604 6.09448H1.52662L3.94296 6.53748L5.00146 8.93932C4.77992 9.58519 4.65917 10.2785 4.65917 11C4.65925 11.783 4.80108 12.5332 5.06129 13.2253Z" fill="#FBBB00"/>
<path d="M21.4804 9.00732C21.6029 9.65257 21.6668 10.3189 21.6668 11C21.6668 11.7637 21.5865 12.5086 21.4335 13.2271C20.9143 15.6722 19.5575 17.8073 17.678 19.3182L17.6774 19.3177L14.6339 19.1624L14.2031 16.4734C15.4503 15.742 16.425 14.5974 16.9384 13.2271H11.2346V9.00732H17.0216H21.4804Z" fill="#518EF8"/>
<path d="M17.6772 19.3176L17.6777 19.3182C15.8498 20.7875 13.5277 21.6666 11 21.6666C6.93783 21.6666 3.40612 19.3962 1.60449 16.0549L5.0612 13.2253C5.96199 15.6294 8.28112 17.3408 11 17.3408C12.1686 17.3408 13.2634 17.0249 14.2029 16.4734L17.6772 19.3176Z" fill="#28B446"/>
<path d="M17.8085 2.78892L14.353 5.61792C13.3807 5.01017 12.2313 4.65908 11 4.65908C8.21963 4.65908 5.85713 6.44896 5.00146 8.93925L1.52658 6.09442H1.526C3.30125 2.67171 6.8775 0.333252 11 0.333252C13.5881 0.333252 15.9612 1.25517 17.8085 2.78892Z" fill="#F14336"/>
</svg>
