<svg t="1702350975929" class="icon" viewBox="0 0 1024 1024" version="1.1" xmlns="http://www.w3.org/2000/svg" p-id="2474" width="32" height="32"><path d="M512 1024C229.23264 1024 0 794.76736 0 512S229.23264 0 512 0s512 229.23264 512 512-229.23264 512-512 512z m212.0704-290.0992l41.5744 24.064c9.216 5.3248 14.5408 1.26976 11.83744-9.03168l-9.0112-34.4064a9.76896 9.76896 0 0 1 3.76832-10.4448C813.50656 674.75456 839.68 631.0912 839.68 582.32832c0-88.28928-85.79072-159.86688-191.61088-159.86688s-191.61088 71.5776-191.61088 159.86688c0 88.2688 85.79072 159.86688 191.61088 159.86688 22.9376 0 44.91264-3.35872 65.26976-9.5232a13.55776 13.55776 0 0 1 10.73152 1.2288z m-366.63296-116.08064a271.85152 271.85152 0 0 0 89.98912 10.89536 146.61632 146.61632 0 0 1-7.7824-47.16544c0-96.31744 94.33088-174.3872 210.71872-174.3872 4.07552 0 8.11008 0.08192 12.12416 0.28672C645.2224 315.84256 549.96992 245.76 435.03616 245.76 307.87584 245.76 204.8 331.55072 204.8 437.37088c0 58.1632 31.15008 110.2848 80.32256 145.42848 4.62848 3.31776 6.7584 9.13408 5.28384 14.62272l-10.83392 40.38656c-3.2768 12.1856 2.99008 16.95744 13.88544 10.58816l49.29536-28.79488a18.59584 18.59584 0 0 1 14.68416-1.78176z m353.73056-60.74368a26.0096 26.0096 0 1 1 0-52.0192 26.0096 26.0096 0 0 1 0 52.0192z m-126.976 0a26.0096 26.0096 0 1 1 0-52.0192 26.0096 26.0096 0 0 1 0 52.0192z m-72.66304-150.69184a30.59712 30.59712 0 1 1 0-61.19424 30.59712 30.59712 0 0 1 0 61.19424z m-153.74336 0a30.59712 30.59712 0 1 1 0-61.19424 30.59712 30.59712 0 0 1 0 61.19424z" fill="#2BD418" p-id="2475"></path></svg>