<svg width="407" height="320" viewBox="0 0 407 320" fill="none" xmlns="http://www.w3.org/2000/svg">
<g filter="url(#filter0_d)">
<path d="M84.9988 142.641L64.5486 130.834V157.67C64.5367 157.868 64.5367 158.065 64.5486 158.262V158.276C64.6784 160.343 66.1109 162.388 68.8443 163.966L113.006 189.461C118.746 192.775 128.052 192.774 133.791 189.461L338.155 71.4799C341.16 69.745 342.592 67.4458 342.451 65.1731V38.3174L321.975 50.1392L293.993 33.9856C288.254 30.672 278.948 30.672 273.209 33.9856L84.9988 142.641Z" fill="url(#paint0_linear)"/>
</g>
<rect x="0.866041" width="258.975" height="73.9928" rx="11.5" transform="matrix(0.866041 -0.499972 0.866041 0.499972 58.568 131.399)" fill="white"/>
<rect x="0.866041" width="258.975" height="73.9928" rx="11.5" transform="matrix(0.866041 -0.499972 0.866041 0.499972 58.568 131.399)" fill="url(#paint1_linear)"/>
<rect x="0.866041" width="258.975" height="73.9928" rx="11.5" transform="matrix(0.866041 -0.499972 0.866041 0.499972 58.568 131.399)" stroke="#E3F2FD"/>
<path d="M171.63 112.285L169.326 113.615L175.679 117.283L174.405 118.018L168.052 114.351L165.769 115.669L164.733 115.071L170.594 111.688L171.63 112.285ZM174.755 114.588C174.218 114.277 173.84 113.937 173.624 113.566C173.404 113.193 173.372 112.828 173.527 112.473C173.68 112.115 174.006 111.792 174.507 111.503C175.248 111.075 176.087 110.866 177.024 110.876C177.964 110.884 178.847 111.105 179.673 111.538L179.967 111.702C180.508 112.015 180.887 112.355 181.104 112.722C181.323 113.087 181.356 113.449 181.2 113.809C181.048 114.166 180.718 114.491 180.211 114.784C179.436 115.231 178.558 115.441 177.577 115.414C176.596 115.383 175.676 115.119 174.816 114.623L174.755 114.588ZM176.095 113.938C176.66 114.264 177.22 114.452 177.775 114.503C178.326 114.552 178.81 114.456 179.226 114.216C179.642 113.976 179.803 113.695 179.708 113.375C179.617 113.053 179.258 112.711 178.632 112.35C178.078 112.03 177.518 111.845 176.953 111.796C176.391 111.745 175.906 111.838 175.496 112.074C175.094 112.307 174.935 112.584 175.019 112.906C175.101 113.227 175.459 113.57 176.095 113.938ZM178.419 107.821L179.754 108.591L180.723 108.032L181.636 108.559L180.667 109.119L183.732 110.888C183.942 111.009 184.135 111.074 184.311 111.081C184.487 111.085 184.681 111.026 184.894 110.903C185.036 110.821 185.163 110.728 185.275 110.624L186.229 111.175C186.026 111.382 185.794 111.561 185.534 111.711C184.586 112.258 183.59 112.23 182.545 111.626L179.434 109.83L178.531 110.352L177.617 109.825L178.521 109.303L177.186 108.533L178.419 107.821ZM190.441 108.761C190.282 108.732 190.063 108.661 189.786 108.547C189.803 109.01 189.527 109.406 188.959 109.734C188.407 110.052 187.8 110.221 187.137 110.241C186.474 110.26 185.911 110.136 185.447 109.868C184.862 109.531 184.63 109.147 184.752 108.717C184.874 108.284 185.339 107.833 186.148 107.367L186.904 106.93L186.543 106.722C186.259 106.558 185.953 106.473 185.625 106.467C185.293 106.46 184.965 106.549 184.641 106.737C184.36 106.899 184.201 107.073 184.164 107.258C184.123 107.442 184.211 107.596 184.427 107.721L183.194 108.433C182.893 108.259 182.712 108.039 182.651 107.774C182.587 107.506 182.651 107.231 182.844 106.948C183.04 106.663 183.35 106.398 183.773 106.154C184.416 105.783 185.09 105.581 185.797 105.547C186.501 105.512 187.151 105.661 187.746 105.993L190.222 107.422C190.716 107.707 191.18 107.895 191.613 107.985L191.699 108.035L190.441 108.761ZM188.198 109.031C188.441 108.89 188.61 108.724 188.705 108.533C188.803 108.339 188.807 108.154 188.715 107.976L187.68 107.378L187.015 107.762C186.559 108.026 186.295 108.27 186.224 108.495C186.153 108.719 186.263 108.915 186.554 109.083C186.79 109.22 187.058 109.285 187.355 109.277C187.653 109.265 187.934 109.183 188.198 109.031ZM194.094 106.652L192.861 107.364L185.067 102.864L186.3 102.152L194.094 106.652ZM199.504 103.529L198.225 104.267L190.836 100.002L192.115 99.2636L199.504 103.529ZM196.616 98.8564L197.286 99.2021C197.201 98.6845 197.489 98.2353 198.149 97.8545C199.292 97.1944 200.529 97.2364 201.858 97.9805L205.486 100.075L204.253 100.787L200.696 98.7334C200.348 98.5322 200.014 98.4277 199.696 98.4199C199.378 98.4082 199.049 98.501 198.707 98.6982C198.21 98.9853 198.064 99.329 198.271 99.7294L202.178 101.985L200.945 102.697L195.454 99.5273L196.616 98.8564ZM208.12 97.5352C208.428 97.3575 208.594 97.1583 208.617 96.9376C208.641 96.7169 208.528 96.5265 208.277 96.3663L209.439 95.6954C209.768 95.9005 209.981 96.1466 210.079 96.4337C210.174 96.7188 210.136 97.0098 209.967 97.3067C209.798 97.6035 209.516 97.8662 209.12 98.0947C208.352 98.5381 207.494 98.7461 206.547 98.7187C205.6 98.6914 204.688 98.4248 203.812 97.919L203.685 97.8457C202.849 97.3633 202.405 96.8487 202.35 96.3019C202.293 95.7531 202.65 95.256 203.421 94.8107C204.074 94.4338 204.796 94.2375 205.588 94.2219C206.379 94.2024 207.095 94.3654 207.734 94.7111L206.572 95.382C206.244 95.2082 205.877 95.1213 205.471 95.1213C205.069 95.1193 204.712 95.2082 204.4 95.3878C204.001 95.6183 203.839 95.88 203.913 96.173C203.984 96.464 204.312 96.7804 204.898 97.1221L205.096 97.2364C205.691 97.5801 206.242 97.7754 206.75 97.8223C207.257 97.8653 207.714 97.7696 208.12 97.5352ZM209.16 94.7258C208.622 94.4152 208.245 94.0744 208.029 93.7034C207.809 93.3303 207.777 92.9661 207.932 92.6107C208.085 92.2533 208.411 91.93 208.912 91.641C209.653 91.2133 210.492 91.0043 211.429 91.0141C212.369 91.0219 213.252 91.2426 214.077 91.6761L214.372 91.8402C214.913 92.1527 215.292 92.4925 215.508 92.8597C215.728 93.2249 215.76 93.5872 215.605 93.9465C215.453 94.3039 215.123 94.6291 214.615 94.9221C213.841 95.3693 212.963 95.5792 211.982 95.5519C211.001 95.5207 210.08 95.257 209.221 94.7609L209.16 94.7258ZM210.5 94.0754C211.065 94.4016 211.625 94.59 212.18 94.6408C212.731 94.6896 213.215 94.5939 213.631 94.3537C214.047 94.1135 214.208 93.8332 214.113 93.513C214.022 93.1907 213.663 92.8489 213.037 92.4876C212.482 92.1673 211.923 91.9828 211.358 91.9339C210.796 91.8832 210.311 91.9759 209.901 92.2122C209.499 92.4447 209.34 92.722 209.424 93.0442C209.505 93.3645 209.864 93.7083 210.5 94.0754ZM213.773 88.9517L214.382 89.2622C214.318 88.7798 214.62 88.3453 215.29 87.9586C216.024 87.5348 216.808 87.4068 217.64 87.5748C217.477 87.0201 217.758 86.5338 218.482 86.1159C219.088 85.7663 219.705 85.6032 220.334 85.6267C220.967 85.6482 221.613 85.8454 222.273 86.2184L225.881 88.3013L224.648 89.0132L221.075 86.9508C220.727 86.7497 220.395 86.6461 220.081 86.6403C219.766 86.6344 219.433 86.7331 219.081 86.9362C218.8 87.0983 218.646 87.275 218.619 87.4664C218.592 87.6539 218.665 87.8385 218.837 88.0201L222.608 90.1909L221.375 90.9027L217.762 88.8169C217.098 88.4537 216.446 88.4576 215.803 88.8286C215.309 89.1138 215.16 89.4321 215.356 89.7837L219.335 92.0804L218.102 92.7923L212.611 89.6225L213.773 88.9517ZM229.666 86.2331C228.885 86.6842 228.005 86.9088 227.027 86.9069C226.05 86.901 225.152 86.6618 224.333 86.1891L224.181 86.1013C223.633 85.7849 223.249 85.4421 223.029 85.073C222.809 84.7 222.77 84.3338 222.912 83.9744C223.054 83.6151 223.36 83.2996 223.831 83.0282C224.578 82.5966 225.394 82.4013 226.276 82.4423C227.163 82.4813 228.042 82.7528 228.915 83.2567L229.412 83.5438L225.825 85.6149C226.315 85.8552 226.825 85.9753 227.352 85.9753C227.883 85.9733 228.35 85.8561 228.753 85.6237C229.318 85.2976 229.549 84.9001 229.448 84.4314L230.747 84.4138C230.855 84.7302 230.816 85.0476 230.63 85.3659C230.444 85.6804 230.123 85.9694 229.666 86.2331ZM224.815 83.6024C224.477 83.7977 224.321 84.0242 224.348 84.282C224.379 84.5379 224.577 84.8044 224.942 85.0818L227.291 83.7254L227.2 83.6727C226.76 83.45 226.339 83.3338 225.936 83.3241C225.531 83.3123 225.157 83.4051 224.815 83.6024Z" fill="#9E9E9E"/>
<path d="M158.194 105.388C157.824 105.175 157.427 105.065 157.003 105.06C156.579 105.05 156.029 105.133 155.353 105.31C154.676 105.487 154.069 105.627 153.533 105.728C152.991 105.827 152.475 105.883 151.983 105.896C151.491 105.904 151.013 105.857 150.549 105.756C150.089 105.651 149.638 105.472 149.196 105.217C148.433 104.776 148.052 104.275 148.052 103.713C148.052 103.15 148.415 102.612 149.141 102.1L147.693 101.264L148.776 100.639L150.244 101.486C151.155 101.09 152.114 100.922 153.12 100.982C154.121 101.04 155.062 101.322 155.941 101.83L153.986 102.959C153.445 102.646 152.928 102.478 152.436 102.455C151.945 102.426 151.512 102.52 151.137 102.736C150.767 102.95 150.587 103.176 150.596 103.416C150.601 103.653 150.788 103.878 151.158 104.092C151.5 104.289 151.875 104.391 152.281 104.396C152.687 104.401 153.266 104.312 154.02 104.127C154.777 103.939 155.427 103.801 155.968 103.713C156.505 103.622 157.015 103.577 157.497 103.58C157.975 103.58 158.433 103.633 158.871 103.74C159.304 103.844 159.726 104.015 160.136 104.252C160.903 104.694 161.286 105.192 161.286 105.744C161.286 106.296 160.91 106.839 160.156 107.373L161.503 108.15L160.427 108.771L159.087 107.998C158.063 108.474 157.019 108.699 155.955 108.673C154.89 108.642 153.896 108.36 152.971 107.826L154.926 106.697C155.463 107.007 156.002 107.172 156.543 107.193C157.085 107.209 157.594 107.078 158.072 106.802C158.469 106.573 158.679 106.332 158.702 106.08C158.72 105.825 158.551 105.594 158.194 105.388ZM170.82 101.092L164.067 104.99L162.727 104.217L162.518 100.416C162.477 99.8874 162.382 99.4603 162.234 99.1348C162.089 98.8067 161.857 98.5502 161.537 98.3653C161.099 98.1127 160.646 97.9786 160.177 97.963C159.703 97.9448 159.261 98.0542 158.851 98.2911C158.409 98.5463 158.212 98.8367 158.262 99.1622C158.312 99.4825 158.584 99.7858 159.081 100.072L157.118 101.205C156.519 100.859 156.113 100.46 155.901 100.01C155.693 99.5567 155.711 99.0984 155.955 98.6348C156.194 98.1687 156.645 97.7443 157.308 97.3615C158.323 96.7756 159.353 96.4618 160.4 96.4201C161.451 96.3759 162.421 96.6102 163.309 97.1232C163.796 97.4044 164.166 97.7638 164.419 98.2013C164.672 98.6388 164.827 99.2286 164.886 99.9707L165.008 102.627L169.243 100.182L170.82 101.092ZM174.581 94.2171C175.944 95.0035 176.704 95.7678 176.862 96.51C177.019 97.2521 176.555 97.937 175.468 98.5645C174.394 99.1843 173.219 99.4538 171.943 99.3731C170.666 99.2924 169.36 98.8744 168.025 98.1193L166.212 97.0724C164.836 96.2782 164.076 95.5113 163.932 94.7718C163.792 94.0296 164.259 93.3487 165.332 92.7289C166.406 92.1092 167.581 91.8396 168.857 91.9204C170.129 91.9985 171.433 92.4151 172.768 93.1703L174.581 94.2171ZM170.637 94.1976C169.82 93.7263 169.114 93.4489 168.519 93.3656C167.924 93.2771 167.389 93.3695 166.916 93.6429C166.455 93.9085 166.293 94.208 166.428 94.5413C166.564 94.8694 167.001 95.2548 167.741 95.6975L170.136 97.0802C170.939 97.5438 171.645 97.8263 172.254 97.9279C172.863 98.0242 173.409 97.9331 173.891 97.6544C174.369 97.3784 174.527 97.0711 174.365 96.7326C174.202 96.3941 173.74 95.9996 172.978 95.5491L170.637 94.1976ZM176.178 91.311L177.22 90.7095C177.716 90.4231 177.96 90.1392 177.951 89.858C177.942 89.5768 177.732 89.3177 177.322 89.0807C176.925 88.8515 176.496 88.7422 176.036 88.7526C175.58 88.7604 175.145 88.8841 174.73 89.1237C174.356 89.3398 174.146 89.5807 174.101 89.8463C174.051 90.1093 174.191 90.3358 174.52 90.5259L172.565 91.6548C172.051 91.3579 171.728 91.0129 171.598 90.6197C171.467 90.2212 171.534 89.8124 171.801 89.3932C172.071 88.9713 172.506 88.5872 173.106 88.2409C174.148 87.6394 175.215 87.3126 176.307 87.2605C177.394 87.2058 178.375 87.431 179.25 87.9362C179.701 88.1966 179.978 88.5156 180.082 88.8932C180.186 89.2708 180.116 89.6471 179.872 90.022C180.626 89.8163 181.336 89.7499 182.004 89.8228C182.676 89.8931 183.282 90.0845 183.824 90.397C184.699 90.9022 185.08 91.492 184.967 92.1665C184.859 92.8383 184.279 93.4776 183.228 94.0843C182.245 94.652 181.18 94.9671 180.035 95.0296C178.894 95.0895 177.897 94.8733 177.044 94.3812L179 93.2523C179.369 93.4659 179.809 93.5609 180.319 93.5375C180.833 93.5114 181.293 93.3812 181.699 93.1469C182.164 92.8787 182.405 92.5987 182.423 92.3071C182.441 92.0102 182.247 91.7446 181.841 91.5102C180.858 90.9426 179.825 90.9712 178.742 91.5962L177.707 92.1938L176.178 91.311ZM187.741 87.9323V88.7448L189.974 90.0338L188.019 91.1626L177.626 85.1629L179.581 84.0341L185.339 87.3581L185.231 86.8582L184.906 84.5067L187.254 83.1513L187.66 86.4402L194.805 87.2448L192.559 88.5417L187.741 87.9323Z" fill="#212121"/>
<rect width="43.9958" height="43.9958" rx="9" transform="matrix(0.866041 -0.499972 0.866041 0.499972 85.2966 130.466)" fill="#FFF8E1"/>
<g clipPath="url(#clip0)">
<path d="M123.4 139.465L138.988 130.466" stroke="#FFC107" stroke-width="1.5" stroke-linecap="round" stroke-linejoin="round"/>
<path d="M111.277 132.466L112.143 132.966C112.832 133.364 113.767 133.587 114.741 133.587C115.716 133.587 116.65 133.364 117.339 132.966C118.028 132.568 118.415 132.029 118.415 131.466C118.415 130.904 118.028 130.364 117.339 129.966M111.277 132.466L116.473 129.467L117.339 129.966M111.277 132.466L126.865 123.467M111.277 132.466L109.546 129.467L121.669 122.468L126.865 123.467M117.339 129.966C118.028 130.364 118.963 130.588 119.937 130.588C120.911 130.588 121.846 130.364 122.535 129.966C123.224 129.569 123.611 129.029 123.611 128.467C123.611 127.904 123.224 127.365 122.535 126.967M122.535 126.967L121.669 126.467M122.535 126.967C123.224 127.365 124.158 127.588 125.133 127.588C126.107 127.588 127.042 127.365 127.731 126.967C128.42 126.569 128.807 126.03 128.807 125.467C128.807 124.905 128.42 124.365 127.731 123.967L126.865 123.467" stroke="#FFC107" stroke-width="1.5" stroke-linecap="round" stroke-linejoin="round"/>
<path d="M125.133 138.466L116.343 133.391" stroke="#FFC107" stroke-width="1.5" stroke-linecap="round" stroke-linejoin="round"/>
<path d="M137.257 131.467L128.466 126.392" stroke="#FFC107" stroke-width="1.5" stroke-linecap="round" stroke-linejoin="round"/>
<path d="M128.597 136.466L125.133 134.466C124.673 134.201 124.415 133.841 124.415 133.466C124.415 133.091 124.673 132.731 125.133 132.466L126.865 131.466C127.324 131.201 127.947 131.052 128.597 131.052C129.246 131.052 129.869 131.201 130.329 131.466L133.793 133.466" stroke="#FFC107" stroke-width="1.5" stroke-linecap="round" stroke-linejoin="round"/>
</g>
<defs>
<filter id="filter0_d" x="0.539673" y="31.5004" width="405.92" height="288.446" filterUnits="userSpaceOnUse" color-interpolation-filters="sRGB">
<feFlood flood-opacity="0" result="BackgroundImageFix"/>
<feColorMatrix in="SourceAlpha" type="matrix" values="0 0 0 0 0 0 0 0 0 0 0 0 0 0 0 0 0 0 127 0"/>
<feOffset dy="64"/>
<feGaussianBlur stdDeviation="32"/>
<feColorMatrix type="matrix" values="0 0 0 0 0 0 0 0 0 0 0 0 0 0 0 0 0 0 0.05 0"/>
<feBlend mode="normal" in2="BackgroundImageFix" result="effect1_dropShadow"/>
<feBlend mode="normal" in="SourceGraphic" in2="effect1_dropShadow" result="shape"/>
</filter>
<linearGradient id="paint0_linear" x1="333.319" y1="70.4552" x2="79.0046" y2="167.537" gradientUnits="userSpaceOnUse">
<stop stop-color="#FBFBFB"/>
<stop offset="1" stop-color="#E3F2FD"/>
</linearGradient>
<linearGradient id="paint1_linear" x1="-125.22" y1="-116.149" x2="93.9059" y2="181.541" gradientUnits="userSpaceOnUse">
<stop stop-color="#E3F2FD"/>
<stop offset="1" stop-color="white" stop-opacity="0"/>
</linearGradient>
<clipPath id="clip0">
<rect width="23.9977" height="23.9977" fill="white" transform="matrix(0.866041 -0.499972 0.866041 0.499972 102.617 130.466)"/>
</clipPath>
</defs>
</svg>
