<svg width="592" height="439" viewBox="0 0 592 439" fill="none" xmlns="http://www.w3.org/2000/svg">
<g filter="url(#filter0_d)">
<path d="M76.7599 199.5V189.996H64.5854V210.157L64.6138 210.172C64.676 212.295 66.1102 214.407 68.9164 216.027L194.478 288.515C200.218 291.828 209.524 291.828 215.263 288.515L523.543 110.543C526.279 108.963 527.71 106.916 527.838 104.847L527.84 104.845L527.84 104.804C527.849 104.634 527.85 104.463 527.841 104.292L527.862 84.0109L510.501 91.0143L397.981 26.0556C392.241 22.7421 382.935 22.7421 377.196 26.0556L76.7599 199.5Z" fill="url(#paint0_linear)"/>
</g>
<rect width="379.964" height="168.984" rx="12" transform="matrix(0.866041 -0.499972 0.866041 0.499972 58.5214 190.029)" fill="#673AB7"/>
<rect width="379.964" height="168.984" rx="12" transform="matrix(0.866041 -0.499972 0.866041 0.499972 58.5214 190.029)" fill="url(#paint1_linear)" fill-opacity="0.3"/>
<mask id="mask0" mask-type="alpha" maskUnits="userSpaceOnUse" x="64" y="3" width="464" height="269">
<rect width="379.964" height="168.984" rx="12" transform="matrix(0.866041 -0.499972 0.866041 0.499972 58.5214 190.029)" fill="#673AB7"/>
</mask>
<g mask="url(#mask0)">
</g>
<mask id="mask1" mask-type="alpha" maskUnits="userSpaceOnUse" x="64" y="3" width="464" height="269">
<rect width="379.964" height="168.984" rx="12" transform="matrix(0.866041 -0.499972 0.866041 0.499972 58.5214 190.029)" fill="#673AB7"/>
</mask>
<g mask="url(#mask1)">
<rect width="210.98" height="210.98" rx="100" transform="matrix(0.866041 -0.499972 0.866041 0.499972 219.59 16.0549)" fill="#5E35B1"/>
<rect opacity="0.7" x="0.866041" width="209.98" height="209.98" rx="99.5" transform="matrix(0.866041 -0.499972 0.866041 0.499972 114.059 35.485)" stroke="#5E35B1"/>
</g>
<rect opacity="0.1" width="31.9969" height="31.9969" rx="9" transform="matrix(0.866041 -0.499972 0.866041 0.499972 359.875 32.052)" fill="#E3F2FD"/>
<rect width="4" height="4" rx="2" transform="matrix(0.866041 -0.499972 0.866041 0.499972 380.658 34.0517)" fill="#B39DDB"/>
<rect width="4" height="4" rx="2" transform="matrix(0.866041 -0.499972 0.866041 0.499972 387.586 30.0523)" fill="#B39DDB"/>
<rect width="21.9979" height="21.9979" rx="10.9989" transform="matrix(0.866041 -0.499972 0.866041 0.499972 269.815 161.032)" fill="#B39DDB"/>
<g clipPath="url(#clip0)">
<path d="M288.868 157.699V164.365" stroke="#5E35B1" stroke-width="1.5" stroke-linecap="round" stroke-linejoin="round"/>
<path d="M283.671 160.699L288.868 157.699L294.064 160.699" stroke="#5E35B1" stroke-width="1.5" stroke-linecap="round" stroke-linejoin="round"/>
</g>
<path d="M203.491 247.968L198.433 250.887L202.222 253.075L208.134 249.662L209.842 250.648L201.791 255.296L189.477 248.187L197.469 243.573L199.194 244.569L193.342 247.948L196.742 249.911L201.799 246.991L203.491 247.968ZM216.854 246.6C216.589 246.552 216.225 246.433 215.763 246.244C215.791 247.015 215.331 247.675 214.384 248.221C213.465 248.752 212.453 249.034 211.348 249.066C210.243 249.099 209.304 248.892 208.531 248.446C207.556 247.883 207.17 247.243 207.373 246.527C207.576 245.805 208.351 245.054 209.699 244.276L210.959 243.549L210.358 243.202C209.885 242.929 209.374 242.787 208.827 242.777C208.275 242.764 207.728 242.914 207.187 243.227C206.719 243.497 206.454 243.787 206.392 244.096C206.324 244.402 206.471 244.659 206.831 244.867L204.776 246.054C204.274 245.764 203.973 245.398 203.871 244.955C203.764 244.509 203.871 244.05 204.193 243.578C204.52 243.103 205.036 242.662 205.74 242.255C206.812 241.637 207.937 241.3 209.115 241.244C210.288 241.186 211.37 241.433 212.363 241.986L216.49 244.369C217.313 244.844 218.085 245.157 218.807 245.307L218.951 245.39L216.854 246.6ZM213.115 247.05C213.521 246.815 213.803 246.539 213.961 246.22C214.125 245.897 214.13 245.588 213.978 245.292L212.253 244.296L211.145 244.936C210.384 245.375 209.944 245.782 209.825 246.156C209.707 246.53 209.89 246.858 210.375 247.138C210.77 247.365 211.215 247.473 211.711 247.46C212.208 247.44 212.676 247.304 213.115 247.05ZM218.274 237.382C217.959 237.512 217.657 237.661 217.369 237.827C216.428 238.37 216.154 238.945 216.549 239.55L222.808 243.163L220.752 244.35L211.601 239.067L213.564 237.934L214.638 238.495C214.339 237.75 214.629 237.123 215.509 236.616C215.802 236.446 216.084 236.329 216.355 236.264L218.274 237.382ZM219.602 234.448L220.719 235.024C220.578 234.161 221.057 233.413 222.156 232.778C224.062 231.678 226.123 231.748 228.339 232.988L234.386 236.479L232.331 237.665L226.402 234.243C225.821 233.907 225.266 233.733 224.736 233.72C224.206 233.701 223.656 233.855 223.087 234.184C222.258 234.663 222.015 235.236 222.359 235.903L228.872 239.662L226.816 240.849L217.665 235.566L219.602 234.448ZM238.674 234.004L236.619 235.19L227.468 229.907L229.523 228.721L238.674 234.004ZM224.964 228.608C224.648 228.426 224.485 228.218 224.474 227.983C224.468 227.746 224.651 227.519 225.023 227.305C225.396 227.09 225.787 226.984 226.199 226.987C226.611 226.991 226.974 227.083 227.29 227.266C227.6 227.445 227.758 227.653 227.764 227.891C227.764 228.125 227.578 228.35 227.205 228.564C226.833 228.779 226.444 228.887 226.038 228.887C225.632 228.88 225.274 228.787 224.964 228.608ZM233.675 226.323L234.792 226.899C234.651 226.037 235.13 225.288 236.229 224.653C238.135 223.553 240.196 223.623 242.412 224.863L248.459 228.354L246.404 229.541L240.475 226.118C239.894 225.783 239.339 225.609 238.809 225.596C238.279 225.576 237.729 225.731 237.16 226.06C236.331 226.538 236.089 227.111 236.432 227.778L242.945 231.538L240.89 232.724L231.739 227.441L233.675 226.323ZM245.558 224.668C244.137 223.848 243.337 223.002 243.156 222.129C242.976 221.25 243.438 220.492 244.543 219.854C245.586 219.252 246.77 218.988 248.095 219.063L247.266 218.477L249.119 217.408L257.99 222.53C259.191 223.223 259.764 223.986 259.707 224.819C259.657 225.649 258.997 226.431 257.728 227.163C257.057 227.55 256.26 227.848 255.335 228.057C254.421 228.265 253.573 228.335 252.789 228.267L252.527 226.992C253.908 227.061 255.061 226.828 255.986 226.294C256.668 225.9 257.021 225.482 257.043 225.039C257.071 224.6 256.728 224.173 256.011 223.76L255.394 223.404C255.462 224.126 255.002 224.772 254.015 225.342C252.944 225.96 251.642 226.221 250.108 226.123C248.58 226.022 247.063 225.537 245.558 224.668ZM247.782 223.589C248.701 224.12 249.612 224.43 250.514 224.522C251.416 224.606 252.2 224.457 252.865 224.072C253.694 223.594 253.953 223.034 253.643 222.393L249.618 220.069C248.535 219.893 247.579 220.044 246.751 220.523C246.074 220.913 245.815 221.372 245.972 221.9C246.136 222.424 246.739 222.987 247.782 223.589Z" fill="#EDE7F6"/>
<path opacity="0.1" d="M176.95 229.286C176.164 228.832 175.321 228.6 174.42 228.589C173.519 228.567 172.349 228.744 170.911 229.12C169.474 229.496 168.184 229.793 167.044 230.008C165.894 230.219 164.796 230.338 163.751 230.365C162.707 230.382 161.691 230.282 160.703 230.066C159.726 229.845 158.767 229.463 157.828 228.921C156.208 227.986 155.398 226.921 155.398 225.725C155.398 224.53 156.17 223.387 157.713 222.297L154.636 220.521L156.936 219.193L160.056 220.994C161.992 220.153 164.029 219.796 166.167 219.923C168.295 220.045 170.293 220.646 172.162 221.725L168.007 224.123C166.857 223.459 165.759 223.102 164.715 223.053C163.67 222.992 162.75 223.191 161.954 223.65C161.168 224.104 160.785 224.585 160.804 225.095C160.814 225.598 161.211 226.077 161.997 226.531C162.726 226.951 163.521 227.167 164.384 227.178C165.247 227.189 166.478 226.998 168.079 226.605C169.689 226.207 171.07 225.914 172.22 225.725C173.36 225.532 174.444 225.438 175.469 225.443C176.485 225.443 177.458 225.557 178.388 225.783C179.308 226.005 180.204 226.367 181.076 226.871C182.706 227.812 183.521 228.868 183.521 230.042C183.521 231.215 182.72 232.368 181.12 233.503L183.981 235.155L181.695 236.474L178.848 234.831C176.672 235.843 174.453 236.322 172.191 236.267C169.929 236.2 167.815 235.6 165.85 234.466L170.006 232.067C171.146 232.725 172.292 233.077 173.442 233.121C174.592 233.154 175.675 232.877 176.691 232.291C177.535 231.804 177.98 231.292 178.028 230.755C178.067 230.213 177.707 229.723 176.95 229.286ZM179.754 222.14L170.322 215.3L182.054 208.527L185.519 210.527L177.194 215.333L181.177 218.23C181.637 217.356 182.423 216.598 183.535 215.956C185.529 214.805 187.709 214.26 190.077 214.321C192.444 214.382 194.74 215.054 196.964 216.338C198.315 217.118 199.24 217.984 199.739 218.936C200.237 219.876 200.251 220.825 199.782 221.783C199.302 222.734 198.339 223.628 196.892 224.464C195.627 225.194 194.198 225.725 192.607 226.057C191.007 226.384 189.425 226.461 187.863 226.29C186.31 226.113 184.92 225.692 183.693 225.028L187.805 222.654C188.764 223.108 189.746 223.327 190.753 223.31C191.759 223.282 192.684 223.025 193.527 222.538C194.467 221.996 194.855 221.384 194.692 220.704C194.52 220.018 193.815 219.318 192.579 218.604C191.39 217.918 190.187 217.561 188.97 217.533C187.752 217.505 186.607 217.801 185.533 218.421C184.546 218.991 184.005 219.603 183.909 220.255L183.88 220.704L179.754 222.14ZM211.773 205.547C214.667 207.218 216.282 208.843 216.618 210.42C216.953 211.997 215.966 213.452 213.656 214.786C211.375 216.103 208.878 216.675 206.165 216.504C203.453 216.332 200.678 215.444 197.841 213.839L193.988 211.615C191.064 209.927 189.449 208.297 189.142 206.726C188.845 205.149 189.837 203.702 192.118 202.385C194.4 201.068 196.897 200.495 199.609 200.667C202.312 200.833 205.082 201.718 207.919 203.323L211.773 205.547ZM203.391 205.506C201.656 204.504 200.156 203.915 198.89 203.738C197.625 203.55 196.489 203.746 195.483 204.327C194.505 204.892 194.16 205.528 194.448 206.236C194.735 206.933 195.665 207.752 197.237 208.693L202.327 211.631C204.033 212.616 205.533 213.217 206.827 213.433C208.121 213.637 209.281 213.444 210.306 212.852C211.322 212.265 211.658 211.612 211.313 210.893C210.968 210.173 209.985 209.335 208.365 208.378L203.391 205.506ZM228.681 195.786C231.575 197.457 233.191 199.081 233.526 200.658C233.862 202.235 232.874 203.691 230.564 205.024C228.283 206.341 225.786 206.914 223.074 206.743C220.361 206.571 217.586 205.683 214.749 204.078L210.896 201.854C207.972 200.166 206.357 198.536 206.05 196.965C205.753 195.388 206.745 193.941 209.027 192.624C211.308 191.307 213.805 190.734 216.517 190.906C219.22 191.072 221.99 191.957 224.828 193.562L228.681 195.786ZM220.299 195.745C218.564 194.743 217.064 194.154 215.798 193.977C214.533 193.788 213.397 193.985 212.391 194.566C211.413 195.13 211.068 195.767 211.356 196.475C211.643 197.172 212.573 197.991 214.145 198.932L219.235 201.87C220.941 202.855 222.441 203.456 223.735 203.671C225.029 203.876 226.189 203.682 227.214 203.09C228.23 202.504 228.566 201.851 228.221 201.132C227.876 200.412 226.893 199.574 225.273 198.617L220.299 195.745ZM238.501 197.753C237.839 197.371 237.523 196.934 237.552 196.442C237.59 195.944 237.945 195.501 238.616 195.114C239.296 194.721 240.063 194.516 240.916 194.5C241.779 194.477 242.541 194.657 243.202 195.039C243.854 195.415 244.165 195.85 244.137 196.342C244.098 196.829 243.734 197.272 243.044 197.67C242.364 198.063 241.601 198.271 240.758 198.293C239.905 198.309 239.152 198.13 238.501 197.753ZM254.158 181.078C257.053 182.749 258.668 184.373 259.003 185.95C259.339 187.527 258.351 188.983 256.041 190.316C253.76 191.633 251.263 192.206 248.551 192.034C245.838 191.863 243.063 190.975 240.226 189.37L236.373 187.145C233.449 185.458 231.834 183.828 231.528 182.257C231.23 180.68 232.222 179.232 234.504 177.916C236.785 176.599 239.282 176.026 241.994 176.197C244.697 176.363 247.468 177.249 250.305 178.853L254.158 181.078ZM245.776 181.036C244.041 180.035 242.541 179.446 241.276 179.268C240.01 179.08 238.875 179.277 237.868 179.858C236.89 180.422 236.545 181.059 236.833 181.767C237.12 182.464 238.05 183.283 239.622 184.224L244.712 187.162C246.418 188.147 247.918 188.747 249.212 188.963C250.506 189.168 251.666 188.974 252.691 188.382C253.707 187.796 254.043 187.143 253.698 186.423C253.353 185.704 252.37 184.866 250.75 183.908L245.776 181.036ZM271.066 171.317C273.961 172.988 275.576 174.612 275.911 176.189C276.247 177.766 275.26 179.221 272.95 180.555C270.668 181.872 268.171 182.445 265.459 182.273C262.746 182.102 259.971 181.214 257.134 179.609L253.281 177.384C250.357 175.697 248.742 174.067 248.436 172.495C248.139 170.918 249.131 169.471 251.412 168.154C253.693 166.837 256.19 166.265 258.903 166.436C261.606 166.602 264.376 167.488 267.213 169.092L271.066 171.317ZM262.684 171.275C260.949 170.274 259.449 169.684 258.184 169.507C256.918 169.319 255.783 169.516 254.776 170.097C253.799 170.661 253.453 171.297 253.741 172.006C254.029 172.703 254.958 173.522 256.53 174.463L261.62 177.401C263.326 178.386 264.826 178.986 266.12 179.202C267.414 179.407 268.574 179.213 269.6 178.621C270.616 178.034 270.951 177.382 270.606 176.662C270.261 175.943 269.278 175.104 267.659 174.147L262.684 171.275Z" fill="white"/>
<path d="M176.95 219.286C176.164 218.832 175.321 218.6 174.42 218.589C173.519 218.567 172.349 218.744 170.911 219.12C169.474 219.496 168.184 219.793 167.044 220.008C165.894 220.219 164.796 220.338 163.751 220.365C162.707 220.382 161.691 220.282 160.703 220.066C159.726 219.845 158.767 219.463 157.828 218.921C156.208 217.986 155.398 216.921 155.398 215.725C155.398 214.53 156.17 213.387 157.713 212.297L154.636 210.521L156.936 209.193L160.056 210.994C161.992 210.153 164.029 209.796 166.167 209.923C168.295 210.045 170.293 210.646 172.162 211.725L168.007 214.123C166.857 213.459 165.759 213.102 164.715 213.053C163.67 212.992 162.75 213.191 161.954 213.65C161.168 214.104 160.785 214.585 160.804 215.095C160.814 215.598 161.211 216.077 161.997 216.531C162.726 216.951 163.521 217.167 164.384 217.178C165.247 217.189 166.478 216.998 168.079 216.605C169.689 216.207 171.07 215.914 172.22 215.725C173.36 215.532 174.444 215.438 175.469 215.443C176.485 215.443 177.458 215.557 178.388 215.783C179.308 216.005 180.204 216.367 181.076 216.871C182.706 217.812 183.521 218.868 183.521 220.042C183.521 221.215 182.72 222.368 181.12 223.503L183.981 225.155L181.695 226.474L178.848 224.831C176.672 225.843 174.453 226.322 172.191 226.267C169.929 226.2 167.815 225.6 165.85 224.466L170.006 222.067C171.146 222.725 172.292 223.077 173.442 223.121C174.592 223.154 175.675 222.877 176.691 222.291C177.535 221.804 177.98 221.292 178.028 220.755C178.067 220.213 177.707 219.723 176.95 219.286ZM179.754 212.14L170.322 205.3L182.054 198.527L185.519 200.527L177.194 205.333L181.177 208.23C181.637 207.356 182.423 206.598 183.535 205.956C185.529 204.805 187.709 204.26 190.077 204.321C192.444 204.382 194.74 205.054 196.964 206.338C198.315 207.118 199.24 207.984 199.739 208.936C200.237 209.876 200.251 210.825 199.782 211.783C199.302 212.734 198.339 213.628 196.892 214.464C195.627 215.194 194.198 215.725 192.607 216.057C191.007 216.384 189.425 216.461 187.863 216.29C186.31 216.113 184.92 215.692 183.693 215.028L187.805 212.654C188.764 213.108 189.746 213.327 190.753 213.31C191.759 213.282 192.684 213.025 193.527 212.538C194.467 211.996 194.855 211.384 194.692 210.704C194.52 210.018 193.815 209.318 192.579 208.604C191.39 207.918 190.187 207.561 188.97 207.533C187.752 207.505 186.607 207.801 185.533 208.421C184.546 208.991 184.005 209.603 183.909 210.255L183.88 210.704L179.754 212.14ZM211.773 195.547C214.667 197.218 216.282 198.843 216.618 200.42C216.953 201.997 215.966 203.452 213.656 204.786C211.375 206.103 208.878 206.675 206.165 206.504C203.453 206.332 200.678 205.444 197.841 203.839L193.988 201.615C191.064 199.927 189.449 198.297 189.142 196.726C188.845 195.149 189.837 193.702 192.118 192.385C194.4 191.068 196.897 190.495 199.609 190.667C202.312 190.833 205.082 191.718 207.919 193.323L211.773 195.547ZM203.391 195.506C201.656 194.504 200.156 193.915 198.89 193.738C197.625 193.55 196.489 193.746 195.483 194.327C194.505 194.892 194.16 195.528 194.448 196.236C194.735 196.933 195.665 197.752 197.237 198.693L202.327 201.631C204.033 202.616 205.533 203.217 206.827 203.433C208.121 203.637 209.281 203.444 210.306 202.852C211.322 202.265 211.658 201.612 211.313 200.893C210.968 200.173 209.985 199.335 208.365 198.378L203.391 195.506ZM228.681 185.786C231.575 187.457 233.191 189.081 233.526 190.658C233.862 192.235 232.874 193.691 230.564 195.024C228.283 196.341 225.786 196.914 223.074 196.743C220.361 196.571 217.586 195.683 214.749 194.078L210.896 191.854C207.972 190.166 206.357 188.536 206.05 186.965C205.753 185.388 206.745 183.941 209.027 182.624C211.308 181.307 213.805 180.734 216.517 180.906C219.22 181.072 221.99 181.957 224.828 183.562L228.681 185.786ZM220.299 185.745C218.564 184.743 217.064 184.154 215.798 183.977C214.533 183.788 213.397 183.985 212.391 184.566C211.413 185.13 211.068 185.767 211.356 186.475C211.643 187.172 212.573 187.991 214.145 188.932L219.235 191.87C220.941 192.855 222.441 193.456 223.735 193.671C225.029 193.876 226.189 193.682 227.214 193.09C228.23 192.504 228.566 191.851 228.221 191.132C227.876 190.412 226.893 189.574 225.273 188.617L220.299 185.745ZM238.501 187.753C237.839 187.371 237.523 186.934 237.552 186.442C237.59 185.944 237.945 185.501 238.616 185.114C239.296 184.721 240.063 184.516 240.916 184.5C241.779 184.477 242.541 184.657 243.202 185.039C243.854 185.415 244.165 185.85 244.137 186.342C244.098 186.829 243.734 187.272 243.044 187.67C242.364 188.063 241.601 188.271 240.758 188.293C239.905 188.309 239.152 188.13 238.501 187.753ZM254.158 171.078C257.053 172.749 258.668 174.373 259.003 175.95C259.339 177.527 258.351 178.983 256.041 180.316C253.76 181.633 251.263 182.206 248.551 182.034C245.838 181.863 243.063 180.975 240.226 179.37L236.373 177.145C233.449 175.458 231.834 173.828 231.528 172.257C231.23 170.68 232.222 169.232 234.504 167.916C236.785 166.599 239.282 166.026 241.994 166.197C244.697 166.363 247.468 167.249 250.305 168.853L254.158 171.078ZM245.776 171.036C244.041 170.035 242.541 169.446 241.276 169.268C240.01 169.08 238.875 169.277 237.868 169.858C236.89 170.422 236.545 171.059 236.833 171.767C237.12 172.464 238.05 173.283 239.622 174.224L244.712 177.162C246.418 178.147 247.918 178.747 249.212 178.963C250.506 179.168 251.666 178.974 252.691 178.382C253.707 177.796 254.043 177.143 253.698 176.423C253.353 175.704 252.37 174.866 250.75 173.908L245.776 171.036ZM271.066 161.317C273.961 162.988 275.576 164.612 275.911 166.189C276.247 167.766 275.26 169.221 272.95 170.555C270.668 171.872 268.171 172.445 265.459 172.273C262.746 172.102 259.971 171.214 257.134 169.609L253.281 167.384C250.357 165.697 248.742 164.067 248.436 162.495C248.139 160.918 249.131 159.471 251.412 158.154C253.693 156.837 256.19 156.265 258.903 156.436C261.606 156.602 264.376 157.488 267.213 159.092L271.066 161.317ZM262.684 161.275C260.949 160.274 259.449 159.684 258.184 159.507C256.918 159.319 255.783 159.516 254.776 160.097C253.799 160.661 253.453 161.297 253.741 162.006C254.029 162.703 254.958 163.522 256.53 164.463L261.62 167.401C263.326 168.386 264.826 168.986 266.12 169.202C267.414 169.407 268.574 169.213 269.6 168.621C270.616 168.034 270.951 167.382 270.606 166.662C270.261 165.943 269.278 165.104 267.659 164.147L262.684 161.275Z" fill="white"/>
<rect width="43.9958" height="43.9958" rx="8" transform="matrix(0.866041 -0.499972 0.866041 0.499972 91.4277 193.028)" fill="#5E35B1"/>
<g opacity="0.3" clipPath="url(#clip1)">
<path d="M132.997 188.029L124.337 193.028C123.381 193.58 123.381 194.476 124.337 195.028L129.533 198.027C130.489 198.58 132.04 198.58 132.997 198.027L141.656 193.028C142.613 192.476 142.613 191.581 141.656 191.028L136.461 188.029C135.504 187.477 133.953 187.477 132.997 188.029Z" stroke="white" stroke-width="1.5" stroke-linecap="round" stroke-linejoin="round"/>
<path d="M134.728 194.028C135.684 193.476 135.684 192.58 134.728 192.028C133.771 191.476 132.22 191.476 131.264 192.028C130.307 192.58 130.307 193.476 131.264 194.028C132.22 194.58 133.771 194.58 134.728 194.028Z" fill="#90CAF9"/>
<path d="M131.264 189.029L129.532 188.029C129.073 187.764 128.45 187.615 127.8 187.615C127.151 187.615 126.528 187.764 126.068 188.029L117.409 193.028C116.949 193.293 116.691 193.653 116.691 194.028C116.691 194.403 116.949 194.763 117.409 195.028L122.605 198.027C123.064 198.293 123.687 198.442 124.336 198.442C124.986 198.442 125.609 198.293 126.068 198.027L127.8 197.028" stroke="white" stroke-width="1.5" stroke-linecap="round" stroke-linejoin="round"/>
</g>
<g clipPath="url(#clip2)">
<path d="M132.997 181.001L124.337 186C123.381 186.552 123.381 187.448 124.337 188L129.533 190.999C130.489 191.552 132.04 191.552 132.997 190.999L141.656 186C142.613 185.448 142.613 184.553 141.656 184L136.461 181.001C135.504 180.449 133.953 180.449 132.997 181.001Z" stroke="white" stroke-width="1.5" stroke-linecap="round" stroke-linejoin="round"/>
<path d="M134.728 187C135.684 186.448 135.684 185.552 134.728 185C133.771 184.448 132.22 184.448 131.264 185C130.307 185.552 130.307 186.448 131.264 187C132.22 187.552 133.771 187.552 134.728 187Z" fill="#90CAF9"/>
<path d="M131.264 182.001L129.532 181.001C129.073 180.736 128.45 180.587 127.8 180.587C127.151 180.587 126.528 180.736 126.068 181.001L117.409 186C116.949 186.265 116.691 186.625 116.691 187C116.691 187.375 116.949 187.735 117.409 188L122.605 190.999C123.064 191.264 123.687 191.413 124.336 191.413C124.986 191.413 125.609 191.264 126.068 190.999L127.8 189.999" stroke="white" stroke-width="1.5" stroke-linecap="round" stroke-linejoin="round"/>
</g>
<defs>
<filter id="filter0_d" x="0.585388" y="23.5705" width="591.276" height="415.43" filterUnits="userSpaceOnUse" color-interpolation-filters="sRGB">
<feFlood flood-opacity="0" result="BackgroundImageFix"/>
<feColorMatrix in="SourceAlpha" type="matrix" values="0 0 0 0 0 0 0 0 0 0 0 0 0 0 0 0 0 0 127 0"/>
<feOffset dy="84"/>
<feGaussianBlur stdDeviation="32"/>
<feColorMatrix type="matrix" values="0 0 0 0 0.403922 0 0 0 0 0.227451 0 0 0 0 0.717647 0 0 0 0.2 0"/>
<feBlend mode="normal" in2="BackgroundImageFix" result="effect1_dropShadow"/>
<feBlend mode="normal" in="SourceGraphic" in2="effect1_dropShadow" result="shape"/>
</filter>
<linearGradient id="paint0_linear" x1="511.423" y1="84.0887" x2="87.5939" y2="266.682" gradientUnits="userSpaceOnUse">
<stop stop-color="#A491C8"/>
<stop offset="1" stop-color="#D7C5F8"/>
</linearGradient>
<linearGradient id="paint1_linear" x1="26.7214" y1="-0.477745" x2="187.458" y2="236.961" gradientUnits="userSpaceOnUse">
<stop stop-color="white"/>
<stop offset="1" stop-color="white" stop-opacity="0"/>
</linearGradient>
<clipPath id="clip0">
<rect width="15.9985" height="15.9985" fill="white" transform="matrix(0.866041 -0.499972 0.866041 0.499972 275.011 161.032)"/>
</clipPath>
<clipPath id="clip1">
<rect width="23.9977" height="23.9977" fill="white" transform="matrix(0.866041 -0.499972 0.866041 0.499972 108.749 193.028)"/>
</clipPath>
<clipPath id="clip2">
<rect width="23.9977" height="23.9977" fill="white" transform="matrix(0.866041 -0.499972 0.866041 0.499972 108.749 186)"/>
</clipPath>
</defs>
</svg>
