<svg width="419" height="299" viewBox="0 0 419 299" fill="none" xmlns="http://www.w3.org/2000/svg">
<g filter="url(#filter0_d)">
<path d="M105.252 127.05L105.252 147.178L105.27 147.162C105.332 149.286 106.766 151.399 109.573 153.019L153.735 178.514C159.475 181.828 168.78 181.828 174.52 178.514L309.607 100.527C312.575 98.814 314.008 96.5504 313.907 94.3056V74.2407L298.507 82.1197L265.446 63.0328C259.706 59.7193 250.4 59.7193 244.661 63.0328L116.816 136.839L105.252 127.05Z" fill="url(#paint0_linear)"/>
</g>
<rect width="179.983" height="74.9928" rx="12" transform="matrix(0.866041 -0.499972 0.866041 0.499972 99.1806 127.02)" fill="#1E88E5"/>
<rect width="179.983" height="74.9928" rx="12" transform="matrix(0.866041 -0.499972 0.866041 0.499972 99.1806 127.02)" fill="url(#paint1_linear)" fill-opacity="0.5"/>
<mask id="mask0" mask-type="alpha" maskUnits="userSpaceOnUse" x="105" y="40" width="209" height="121">
<rect width="179.983" height="74.9928" rx="12" transform="matrix(0.866041 -0.499972 0.866041 0.499972 99.1806 127.02)" fill="#1E88E5"/>
<rect width="179.983" height="74.9928" rx="12" transform="matrix(0.866041 -0.499972 0.866041 0.499972 99.1806 127.02)" fill="url(#paint2_linear)"/>
</mask>
<g mask="url(#mask0)">
<rect x="0.866041" width="209.98" height="209.98" rx="99.5" transform="matrix(0.866041 -0.499972 0.866041 0.499972 43.8753 -4.52748)" stroke="url(#paint3_linear)"/>
<rect x="0.866041" width="209.98" height="209.98" rx="99.5" transform="matrix(0.866041 -0.499972 0.866041 0.499972 202.346 40.9657)" stroke="url(#paint4_linear)"/>
</g>
<path d="M209.76 111.838L207.457 113.168L213.81 116.836L212.536 117.571L206.183 113.903L203.899 115.222L202.864 114.624L208.725 111.241L209.76 111.838ZM212.886 114.141C212.348 113.83 211.971 113.489 211.755 113.118C211.535 112.745 211.503 112.381 211.658 112.026C211.81 111.668 212.137 111.345 212.638 111.056C213.378 110.628 214.217 110.419 215.154 110.429C216.095 110.437 216.978 110.658 217.803 111.091L218.098 111.255C218.639 111.568 219.018 111.907 219.234 112.275C219.454 112.64 219.486 113.002 219.331 113.361C219.179 113.719 218.849 114.044 218.341 114.337C217.567 114.784 216.689 114.994 215.708 114.967C214.727 114.936 213.806 114.672 212.947 114.176L212.886 114.141ZM214.226 113.49C214.791 113.817 215.351 114.005 215.905 114.056C216.457 114.105 216.941 114.009 217.357 113.769C217.773 113.528 217.934 113.248 217.839 112.928C217.748 112.606 217.389 112.264 216.763 111.903C216.208 111.582 215.648 111.398 215.083 111.349C214.522 111.298 214.036 111.391 213.627 111.627C213.224 111.86 213.065 112.137 213.15 112.459C213.231 112.779 213.59 113.123 214.226 113.49ZM216.55 107.374L217.885 108.144L218.854 107.584L219.767 108.112L218.798 108.671L221.863 110.441C222.073 110.562 222.265 110.626 222.441 110.634C222.617 110.638 222.812 110.578 223.025 110.455C223.167 110.373 223.294 110.281 223.406 110.177L224.36 110.728C224.157 110.935 223.925 111.114 223.664 111.264C222.717 111.811 221.721 111.782 220.675 111.179L217.565 109.383L216.662 109.905L215.748 109.377L216.651 108.856L215.317 108.085L216.55 107.374ZM228.571 108.314C228.412 108.285 228.194 108.213 227.917 108.1C227.934 108.563 227.658 108.958 227.09 109.287C226.538 109.605 225.931 109.774 225.268 109.793C224.605 109.813 224.042 109.689 223.578 109.421C222.993 109.083 222.761 108.7 222.883 108.27C223.005 107.836 223.47 107.386 224.278 106.919L225.034 106.483L224.674 106.275C224.39 106.111 224.084 106.026 223.756 106.02C223.424 106.012 223.096 106.102 222.771 106.29C222.49 106.452 222.331 106.626 222.294 106.811C222.254 106.995 222.342 107.149 222.558 107.274L221.325 107.986C221.024 107.812 220.843 107.592 220.782 107.327C220.718 107.059 220.782 106.784 220.975 106.501C221.171 106.215 221.481 105.951 221.904 105.707C222.546 105.336 223.221 105.133 223.928 105.1C224.632 105.065 225.281 105.214 225.877 105.546L228.353 106.975C228.847 107.26 229.311 107.448 229.744 107.538L229.83 107.587L228.571 108.314ZM226.328 108.583C226.572 108.443 226.741 108.277 226.836 108.085C226.934 107.892 226.937 107.707 226.846 107.529L225.811 106.931L225.146 107.315C224.689 107.579 224.426 107.823 224.354 108.047C224.283 108.272 224.393 108.468 224.684 108.636C224.921 108.773 225.188 108.837 225.486 108.83C225.784 108.818 226.065 108.736 226.328 108.583ZM232.225 106.205L230.992 106.917L223.197 102.417L224.431 101.705L232.225 106.205ZM237.634 103.082L236.356 103.82L228.967 99.5546L230.246 98.8164L237.634 103.082ZM234.747 98.4092L235.417 98.7549C235.332 98.2373 235.62 97.7881 236.279 97.4073C237.423 96.7472 238.659 96.7892 239.989 97.5333L243.617 99.6279L242.384 100.34L238.827 98.2861C238.478 98.085 238.145 97.9805 237.827 97.9727C237.509 97.961 237.179 98.0537 236.838 98.251C236.34 98.5381 236.195 98.8818 236.401 99.2822L240.309 101.538L239.075 102.25L233.585 99.0801L234.747 98.4092ZM246.251 97.088C246.559 96.9102 246.724 96.711 246.748 96.4903C246.772 96.2697 246.658 96.0792 246.408 95.9191L247.57 95.2482C247.898 95.4533 248.111 95.6994 248.21 95.9865C248.304 96.2716 248.267 96.5626 248.098 96.8595C247.929 97.1563 247.646 97.419 247.25 97.6475C246.483 98.0908 245.625 98.2988 244.678 98.2715C243.73 98.2442 242.819 97.9776 241.943 97.4717L241.816 97.3985C240.98 96.9161 240.535 96.4015 240.481 95.8546C240.424 95.3058 240.781 94.8088 241.552 94.3635C242.205 93.9866 242.927 93.7903 243.719 93.7747C244.51 93.7551 245.226 93.9182 245.865 94.2639L244.703 94.9348C244.375 94.761 244.008 94.674 243.602 94.674C243.199 94.6721 242.842 94.761 242.531 94.9406C242.132 95.1711 241.97 95.4328 242.044 95.7257C242.115 96.0167 242.443 96.3331 243.028 96.6749L243.226 96.7892C243.822 97.1329 244.373 97.3282 244.881 97.3751C245.388 97.418 245.845 97.3223 246.251 97.088ZM247.291 94.2786C246.753 93.968 246.376 93.6272 246.159 93.2562C245.94 92.8831 245.907 92.5189 246.063 92.1634C246.215 91.806 246.542 91.4828 247.042 91.1938C247.783 90.7661 248.622 90.5571 249.559 90.5668C250.5 90.5747 251.383 90.7954 252.208 91.2289L252.503 91.393C253.044 91.7055 253.423 92.0453 253.639 92.4124C253.859 92.7777 253.891 93.1399 253.736 93.4993C253.583 93.8567 253.254 94.1819 252.746 94.4748C251.971 94.9221 251.094 95.132 250.112 95.1047C249.131 95.0734 248.211 94.8098 247.352 94.3137L247.291 94.2786ZM248.631 93.6282C249.196 93.9544 249.756 94.1428 250.31 94.1936C250.862 94.2424 251.346 94.1467 251.762 93.9065C252.178 93.6663 252.338 93.386 252.244 93.0657C252.152 92.7435 251.794 92.4017 251.168 92.0404C250.613 91.7201 250.053 91.5355 249.488 91.4867C248.927 91.4359 248.441 91.5287 248.032 91.765C247.629 91.9974 247.47 92.2748 247.555 92.597C247.636 92.9173 247.995 93.261 248.631 93.6282ZM251.904 88.5045L252.513 88.815C252.448 88.3326 252.751 87.898 253.421 87.5114C254.155 87.0875 254.938 86.9596 255.77 87.1276C255.608 86.5729 255.889 86.0866 256.613 85.6687C257.218 85.3191 257.836 85.156 258.465 85.1794C259.098 85.2009 259.744 85.3982 260.403 85.7712L264.011 87.8541L262.778 88.566L259.206 86.5036C258.857 86.3024 258.526 86.1989 258.211 86.1931C257.897 86.1872 257.563 86.2858 257.212 86.4889C256.931 86.651 256.777 86.8278 256.75 87.0192C256.723 87.2067 256.796 87.3912 256.968 87.5729L260.738 89.7437L259.505 90.4555L255.892 88.3697C255.229 88.0064 254.576 88.0103 253.934 88.3814C253.44 88.6666 253.291 88.9849 253.487 89.3364L257.465 91.6332L256.232 92.3451L250.742 89.1753L251.904 88.5045ZM267.797 85.7859C267.015 86.237 266.136 86.4616 265.158 86.4597C264.181 86.4538 263.282 86.2145 262.464 85.7419L262.311 85.654C261.763 85.3376 261.379 84.9949 261.16 84.6258C260.94 84.2527 260.901 83.8866 261.043 83.5272C261.185 83.1678 261.491 82.8524 261.961 82.581C262.709 82.1493 263.524 81.954 264.407 81.9951C265.294 82.0341 266.173 82.3056 267.046 82.8095L267.543 83.0966L263.956 85.1677C264.446 85.408 264.955 85.5281 265.483 85.5281C266.014 85.5261 266.481 85.4089 266.884 85.1765C267.448 84.8504 267.68 84.4529 267.579 83.9842L268.878 83.9666C268.986 84.283 268.947 84.6004 268.761 84.9187C268.575 85.2332 268.254 85.5222 267.797 85.7859ZM262.946 83.1551C262.607 83.3504 262.452 83.577 262.479 83.8348C262.509 84.0906 262.707 84.3572 263.073 84.6346L265.422 83.2782L265.331 83.2255C264.891 83.0028 264.47 82.8866 264.067 82.8768C263.661 82.8651 263.287 82.9579 262.946 83.1551Z" fill="#E3F2FD"/>
<path d="M194.593 103.941C194.223 103.728 193.826 103.618 193.402 103.613C192.978 103.603 192.428 103.686 191.751 103.863C191.075 104.04 190.468 104.18 189.931 104.281C189.39 104.38 188.874 104.436 188.382 104.449C187.89 104.457 187.412 104.41 186.948 104.309C186.488 104.204 186.036 104.025 185.594 103.769C184.832 103.329 184.451 102.828 184.451 102.266C184.451 101.703 184.814 101.165 185.54 100.652L184.092 99.8166L185.175 99.1916L186.643 100.039C187.554 99.6434 188.513 99.4754 189.519 99.5353C190.52 99.5926 191.46 99.8752 192.34 100.383L190.385 101.512C189.843 101.199 189.327 101.031 188.835 101.008C188.344 100.979 187.911 101.073 187.536 101.289C187.166 101.503 186.986 101.729 186.995 101.969C186.999 102.206 187.187 102.431 187.557 102.645C187.899 102.842 188.274 102.944 188.68 102.949C189.086 102.954 189.665 102.865 190.419 102.68C191.176 102.492 191.826 102.354 192.367 102.266C192.904 102.175 193.414 102.13 193.896 102.133C194.374 102.133 194.832 102.186 195.27 102.293C195.703 102.397 196.124 102.568 196.535 102.805C197.302 103.247 197.685 103.745 197.685 104.297C197.685 104.849 197.309 105.392 196.555 105.926L197.902 106.703L196.826 107.324L195.486 106.551C194.462 107.027 193.418 107.252 192.354 107.226C191.289 107.195 190.294 106.913 189.37 106.379L191.325 105.25C191.862 105.56 192.401 105.725 192.942 105.746C193.484 105.762 193.993 105.631 194.471 105.355C194.868 105.126 195.078 104.885 195.101 104.633C195.119 104.378 194.949 104.147 194.593 103.941ZM207.218 99.6447L200.466 103.543L199.126 102.77L198.917 98.969C198.876 98.4403 198.781 98.0133 198.632 97.6878C198.488 97.3597 198.256 97.1032 197.935 96.9183C197.498 96.6657 197.045 96.5316 196.576 96.516C196.102 96.4977 195.66 96.6071 195.249 96.8441C194.807 97.0993 194.611 97.3896 194.661 97.7151C194.71 98.0354 194.983 98.3388 195.479 98.6252L193.517 99.758C192.917 99.4116 192.511 99.0132 192.299 98.5627C192.092 98.1096 192.11 97.6513 192.354 97.1878C192.593 96.7217 193.044 96.2972 193.707 95.9144C194.722 95.3285 195.752 95.0147 196.799 94.9731C197.85 94.9288 198.82 95.1632 199.708 95.6762C200.195 95.9574 200.565 96.3168 200.818 96.7542C201.07 97.1917 201.226 97.7815 201.285 98.5237L201.406 101.18L205.642 98.7346L207.218 99.6447ZM210.98 92.7701C212.342 93.5565 213.102 94.3208 213.26 95.0629C213.418 95.8051 212.954 96.4899 211.867 97.1175C210.793 97.7373 209.618 98.0068 208.342 97.926C207.065 97.8453 205.759 97.4274 204.424 96.6722L202.611 95.6254C201.235 94.8312 200.475 94.0643 200.331 93.3247C200.191 92.5826 200.658 91.9016 201.731 91.2819C202.805 90.6621 203.98 90.3926 205.256 90.4733C206.528 90.5515 207.832 90.9681 209.167 91.7233L210.98 92.7701ZM207.036 92.7505C206.219 92.2792 205.513 92.0019 204.918 91.9186C204.323 91.83 203.788 91.9225 203.314 92.1959C202.854 92.4615 202.692 92.761 202.827 93.0943C202.963 93.4224 203.4 93.8078 204.14 94.2505L206.535 95.6332C207.338 96.0967 208.044 96.3793 208.653 96.4808C209.262 96.5772 209.807 96.486 210.29 96.2074C210.768 95.9314 210.926 95.6241 210.764 95.2856C210.601 94.947 210.139 94.5525 209.377 94.102L207.036 92.7505ZM212.577 89.864L213.619 89.2625C214.115 88.976 214.359 88.6922 214.35 88.4109C214.341 88.1297 214.131 87.8706 213.72 87.6336C213.324 87.4045 212.895 87.2951 212.435 87.3055C211.979 87.3133 211.544 87.437 211.129 87.6766C210.755 87.8927 210.545 88.1336 210.5 88.3992C210.45 88.6622 210.59 88.8888 210.919 89.0789L208.964 90.2077C208.45 89.9109 208.127 89.5658 207.996 89.1726C207.866 88.7742 207.933 88.3654 208.199 87.9461C208.47 87.5243 208.905 87.1402 209.505 86.7938C210.547 86.1923 211.614 85.8655 212.706 85.8134C213.793 85.7587 214.774 85.984 215.649 86.4892C216.1 86.7496 216.377 87.0686 216.481 87.4462C216.585 87.8237 216.515 88.2 216.271 88.575C217.024 88.3693 217.735 88.3029 218.402 88.3758C219.075 88.4461 219.681 88.6375 220.223 88.95C221.098 89.4552 221.479 90.045 221.366 90.7194C221.258 91.3912 220.678 92.0305 219.627 92.6373C218.644 93.2049 217.579 93.52 216.434 93.5825C215.292 93.6424 214.296 93.4263 213.443 92.9341L215.398 91.8053C215.768 92.0188 216.208 92.1139 216.718 92.0904C217.232 92.0644 217.692 91.9342 218.098 91.6998C218.563 91.4316 218.804 91.1517 218.822 90.86C218.84 90.5632 218.646 90.2976 218.24 90.0632C217.257 89.4955 216.224 89.5242 215.141 90.1491L214.106 90.7468L212.577 89.864ZM224.14 86.4853V87.2977L226.373 88.5867L224.417 89.7156L214.025 83.7159L215.98 82.587L221.738 85.9111L221.63 85.4111L221.305 83.0597L223.653 81.7043L224.059 84.9932L231.204 85.7978L228.957 87.0946L224.14 86.4853Z" fill="white"/>
<rect width="43.9958" height="43.9958" rx="9" transform="matrix(0.866041 -0.499972 0.866041 0.499972 126.025 126.52)" fill="#1565C0"/>
<g opacity="0.2" clipPath="url(#clip0)">
<path d="M163.262 119.021L151.138 126.02C150.66 126.296 150.66 126.743 151.138 127.02L163.262 134.019C163.74 134.295 164.515 134.295 164.993 134.019L177.117 127.02C177.595 126.743 177.595 126.296 177.117 126.02L164.993 119.021C164.515 118.745 163.74 118.745 163.262 119.021Z" stroke="white" stroke-width="1.5" stroke-linecap="round" stroke-linejoin="round"/>
<path d="M153.736 128.519L167.591 120.521" stroke="white" stroke-width="1.5" stroke-linecap="round" stroke-linejoin="round"/>
<path d="M153.736 124.52L157.2 126.52" stroke="white" stroke-width="1.5" stroke-linecap="round" stroke-linejoin="round"/>
</g>
<g clipPath="url(#clip1)">
<path d="M163.262 112.024L151.138 119.023C150.66 119.299 150.66 119.747 151.138 120.023L163.262 127.022C163.74 127.298 164.515 127.298 164.993 127.022L177.117 120.023C177.595 119.747 177.595 119.299 177.117 119.023L164.993 112.024C164.515 111.748 163.74 111.748 163.262 112.024Z" stroke="white" stroke-width="1.5" stroke-linecap="round" stroke-linejoin="round"/>
<path d="M153.736 121.523L167.591 113.524" stroke="white" stroke-width="1.5" stroke-linecap="round" stroke-linejoin="round"/>
<path d="M153.736 117.523L157.2 119.523" stroke="white" stroke-width="1.5" stroke-linecap="round" stroke-linejoin="round"/>
</g>
<defs>
<filter id="filter0_d" x="41.252" y="50.5477" width="336.66" height="248.452" filterUnits="userSpaceOnUse" color-interpolation-filters="sRGB">
<feFlood flood-opacity="0" result="BackgroundImageFix"/>
<feColorMatrix in="SourceAlpha" type="matrix" values="0 0 0 0 0 0 0 0 0 0 0 0 0 0 0 0 0 0 127 0"/>
<feOffset dy="54"/>
<feGaussianBlur stdDeviation="32"/>
<feColorMatrix type="matrix" values="0 0 0 0 0.317647 0 0 0 0 0.556863 0 0 0 0 0.972549 0 0 0 0.5 0"/>
<feBlend mode="normal" in2="BackgroundImageFix" result="effect1_dropShadow"/>
<feBlend mode="normal" in="SourceGraphic" in2="effect1_dropShadow" result="shape"/>
</filter>
<linearGradient id="paint0_linear" x1="305.15" y1="69.8091" x2="139.883" y2="167.103" gradientUnits="userSpaceOnUse">
<stop stop-color="#58B4FF"/>
<stop offset="1" stop-color="#C4E5FF"/>
</linearGradient>
<linearGradient id="paint1_linear" x1="7.35316" y1="-7.35317" x2="50.381" y2="82.783" gradientUnits="userSpaceOnUse">
<stop stop-color="white"/>
<stop offset="1" stop-color="white" stop-opacity="0"/>
</linearGradient>
<linearGradient id="paint2_linear" x1="8.9726" y1="7.6034" x2="55.9142" y2="93.5951" gradientUnits="userSpaceOnUse">
<stop stop-color="white"/>
<stop offset="1" stop-color="white" stop-opacity="0"/>
</linearGradient>
<linearGradient id="paint3_linear" x1="-65.9937" y1="-2.80602e-06" x2="105.49" y2="210.98" gradientUnits="userSpaceOnUse">
<stop stop-color="#90CAF9"/>
<stop offset="1" stop-color="#90CAF9" stop-opacity="0"/>
</linearGradient>
<linearGradient id="paint4_linear" x1="199.981" y1="-175.983" x2="5.99946" y2="159.485" gradientUnits="userSpaceOnUse">
<stop stop-color="#90CAF9"/>
<stop offset="1" stop-color="#90CAF9" stop-opacity="0"/>
</linearGradient>
<clipPath id="clip0">
<rect width="23.9977" height="23.9977" fill="white" transform="matrix(0.866041 -0.499972 0.866041 0.499972 143.344 126.52)"/>
</clipPath>
<clipPath id="clip1">
<rect width="23.9977" height="23.9977" fill="white" transform="matrix(0.866041 -0.499972 0.866041 0.499972 143.344 119.523)"/>
</clipPath>
</defs>
</svg>
