<svg viewBox="0 0 590 360" xmlns="http://www.w3.org/2000/svg" version="1.1">
 <g>
  <ellipse transform="rotate(103.6 287.6 32.87)" id="svg_1" ry="28.14" rx="28.47" cy="32.87" cx="287.60001" fill="#fff"/>
  <path id="svg_2" d="m232.92,128.89c3.78,27.29 -1.81,55.44 -17.71,78.09a2.62,2.62 0 0 0 -0.06,2.92c1.24,1.92 2.96,5.05 5.56,4.94q5.25,-0.22 10.79,0.11a1.26,1.26 0 0 1 1.19,1.27l-0.4,42.53a1.31,1.31 0 0 1 -1.31,1.3q-16.77,-0.09 -36.53,0.01q-2.25,0.02 -3.71,-1.56q-16.02,-17.28 -31.98,-35.32c-5.13,-5.8 -10.18,-11.16 -14.86,-17.59a1.35,1.34 -31.1 0 1 0.5,-2q12.88,-6.32 22.13,-17.12q18.18,-21.23 15.08,-48.84q-2.66,-23.7 -22.4,-40.46q-23.43,-19.9 -54.88,-13.86c-4.1,0.79 -7.83,2.5 -11.72,4.12q-11.86,4.94 -20.59,14.64c-14.25,15.81 -20.07,36.4 -15.05,57.16q4.99,20.63 22.86,35.71c10.45,8.81 23.7,13.12 37.26,14.18q1.47,0.11 3.6,2.65c11.68,13.89 24.48,27.72 35.94,41.96a0.43,0.43 0 0 1 -0.21,0.68q-22.51,7.27 -47.37,5.37q-19.4,-1.47 -39.74,-11.22q-18.27,-8.75 -30.59,-21.28q-18.66,-18.98 -28.02,-43.57q-10.8,-28.4 -4.93,-58.67c1.59,-8.17 4.03,-17 7.42,-24.61q5.08,-11.38 11.61,-20.64q25.41,-36.03 68.45,-46.13q32.42,-7.61 64.23,3.92q25.31,9.17 43.2,27.31c16.85,17.09 28.91,40.01 32.24,64z" fill="#fff"/>
  <path id="svg_3" d="m499.47,180.61c6.45,13.53 16.44,21.75 31.96,22q11.94,0.19 22.17,-5.36q2.21,-1.2 3.93,0.69q12.56,13.78 24.89,28.47q1.21,1.44 1.44,3.13a0.95,0.95 0 0 1 -0.36,0.89c-1.62,1.23 -3.33,2.71 -5.03,3.69q-29.37,17.01 -62.47,11.31c-20.61,-3.55 -39.05,-15.24 -51.47,-32.51q-6.4,-8.89 -9.91,-17.08c-2.62,-6.12 -4.73,-13.3 -5.41,-20.08q-3.96,-39.88 22.94,-67.74c9.48,-9.81 21.15,-16.67 34.39,-19.49c16.54,-3.53 34.64,-1.83 48.77,7.1q13.92,8.79 21.13,20.4q11.07,17.84 10.48,38.92c-0.02,0.94 -0.21,1.81 -0.85,2.54q-7.73,8.77 -18.71,20.16c-1.28,1.32 -2.61,2.26 -4.51,2.23q-24.45,-0.37 -51.64,-0.41q-5.03,0 -10.84,-0.22a0.96,0.95 -11.7 0 0 -0.9,1.36zm1.12,-37.17q-0.55,1.19 -0.63,2.34q-0.08,1.01 0.94,1.03q19.01,0.25 36.98,0.01q0.5,0 0.94,-0.22q0.57,-0.28 0.44,-0.9q-2.34,-11.6 -14.11,-15.25q-3.59,-1.11 -6.44,-0.57q-13.07,2.5 -18.12,13.56z" fill="#fff"/>
  <path id="svg_4" d="m312.3,100.22a0.5,0.49 -22.1 0 0 0.84,0.35q2.76,-2.64 5.82,-4.31q8.45,-4.62 16.71,-6.57c15.81,-3.72 33.58,-3.2 48.2,3.95q24.49,11.98 35.05,35.76c4.66,10.5 5.44,22.96 5.5,35.35q0.21,49.99 -0.12,88q-0.03,3.06 -0.08,6.16a1.32,1.32 0 0 1 -1.33,1.3q-20.22,-0.18 -40.18,-0.23q-3.64,-0.01 -8.13,-0.44a1.06,1.05 -87.3 0 1 -0.95,-1.05q0.02,-45.49 -0.22,-92.99c-0.03,-6.25 -1.21,-13.88 -5.05,-18.95q-5.33,-7.03 -12.32,-10.18c-10.99,-4.93 -24.52,-1.84 -33.13,6.37q-10.01,9.53 -10.07,23.76q-0.11,25.46 -0.1,48.98c0,3.52 -0.06,8.31 -1.1,11.68c-4.37,14.04 -17.31,19.5 -31.04,16.77c-8.22,-1.64 -15.07,-7.75 -17.62,-15.62q-1.45,-4.49 -1.42,-10.2q0.3,-64.69 0.1,-129.86a0.47,0.47 0 0 1 0.47,-0.47l48.46,-0.35a1.56,1.55 89.4 0 1 1.56,1.54l0.15,11.25z" fill="#fff"/>
  <path id="svg_5" d="m265.63,344.43a2.02,2.01 76.7 0 0 -1.85,-1.15l-17.03,0.24a2.25,2.22 9.3 0 0 -2.06,1.46l-2.86,7.84a2.47,2.46 -79.1 0 1 -2.38,1.62l-6.23,-0.19q-1.19,-0.04 -0.88,-1.19q1.38,-5.23 2.81,-8.7c3.41,-8.3 6.48,-16.83 10.12,-25.35q2.96,-6.93 5.21,-14.24c0.46,-1.52 1.69,-2.64 3.37,-2.63c2.02,0 4.68,-0.78 5.7,1.58q7.68,17.74 18.16,44.75q0.96,2.46 1.48,5a0.67,0.66 84.3 0 1 -0.65,0.8l-6.05,-0.02q-2.16,-0.01 -3.1,-1.96l-3.76,-7.86zm-16.73,-10.31a0.34,0.34 0 0 0 0.32,0.47l12.85,-0.36a0.34,0.34 0 0 0 0.3,-0.48l-6.84,-14.7a0.34,0.34 0 0 0 -0.62,0.02l-6.01,15.05z" fill="#fff"/>
  <rect id="svg_6" rx="2.17" height="52.28" width="9.84" y="302.19" x="345.67" fill="#fff"/>
  <path id="svg_7" d="m303.07,338.46l-0.15,14.42q-0.01,1.55 -1.56,1.52l-5.84,-0.12q-1.79,-0.04 -1.81,-1.83c-0.24,-15.33 -0.25,-30.89 -0.27,-47.22q-0.01,-2.99 2.55,-3.06q12.47,-0.33 20.15,0.8q8.61,1.25 12.86,9.17c2.95,5.49 2.53,13.5 -1.5,18.65c-5.57,7.14 -14.88,6.62 -23.24,6.51a1.17,1.17 0 0 0 -1.19,1.16zm-0.15,-24.81l0.16,12.72a1.72,1.72 0 0 0 1.74,1.7l6.07,-0.08a10.01,7.98 -0.7 0 0 9.91,-8.1l0,-0.2a10.01,7.98 -0.7 0 0 -10.11,-7.86l-6.07,0.08a1.72,1.72 0 0 0 -1.7,1.74z" fill="#fff"/>
  <rect id="svg_8" rx="3.58" height="7.26" width="79.2" y="322.99" x="107" fill="#fff"/>
  <rect id="svg_9" rx="3.81" height="7.72" width="79.1" y="322.78" x="417.27" fill="#fff"/>
 </g>
</svg>